<?xml version="1.0" encoding="utf-8"?>
<svg xmlns="http://www.w3.org/2000/svg" viewBox="0 0 500 200" xmlns:bx="https://boxy-svg.com" width="500px" height="200px"><defs><bx:export><bx:file format="svg" excluded="true"/><bx:file format="webp" excluded="true"/><bx:file format="svg" href="#object-0" path="Untitled 2.svg" excluded="true"/><bx:file format="svg" href="#object-1" path="Untitled 3.svg" excluded="true"/><bx:file format="svg" href="#object-2" path="Untitled 4.svg" excluded="true"/><bx:file format="webp" path="Untitled 2.webp" excluded="true"/><bx:file format="svg" href="#object-3" path="Untitled 5.svg" excluded="true"/><bx:file format="svg" href="#object-4" path="Untitled 6.svg" excluded="true"/><bx:file format="svg" href="#object-5" path="Untitled 7.svg" excluded="true"/><bx:file format="svg" href="#object-5" path="Untitled 8.svg" excluded="true"/><bx:file format="svg" href="#object-4" path="Untitled 9.svg" excluded="true"/><bx:file format="svg" href="#object-3" path="Untitled 10.svg" excluded="true"/><bx:file format="svg" href="#object-2" path="Untitled 11.svg" excluded="true"/><bx:file format="svg" href="#object-1" path="Untitled 12.svg" excluded="true"/><bx:file format="svg" href="#object-0" path="Untitled 13.svg" excluded="true"/><bx:file format="svg" href="#object-5" path="Untitled 15.svg" excluded="true"/><bx:file format="svg" href="#object-4" path="Untitled 16.svg" excluded="true"/><bx:file format="svg" href="#object-3" path="Untitled 17.svg" excluded="true"/><bx:file format="svg" href="#object-1" path="Untitled 18.svg" excluded="true"/><bx:file format="svg" href="#object-2" path="Untitled 19.svg" excluded="true"/><bx:file format="svg" href="#object-0" path="Untitled 20.svg" excluded="true"/><bx:file format="svg" path="Untitled 21.svg"/><bx:file format="svg" path="Untitled 14.svg" excluded="true"/></bx:export></defs><path d="M 29.536 143.871 C 28.906 144.495 29.016 144.701 29.886 144.49 C 31.476 144.107 33.276 143.468 35.276 142.572 C 36.896 141.857 40.086 140.39 44.856 138.172 C 54.116 133.869 64.226 129.961 75.176 126.447 C 100.116 118.442 119.966 112.313 134.716 108.057 C 148.896 103.974 162.716 98.341 175.615 91.972 C 176.964 91.308 178.256 90.823 179.491 90.517 C 180.615 90.243 181.384 90.56 181.797 91.469 C 181.961 91.829 182.358 92.023 182.743 91.932 C 184.129 91.617 185.376 91.18 186.484 90.623 C 187.343 90.19 187.296 89.9 186.343 89.752 C 185.423 89.611 184.619 89.395 183.931 89.103 C 183.635 88.976 183.588 88.577 183.845 88.384 C 183.85 88.38 183.855 88.377 183.861 88.373 C 184.475 87.964 185.232 87.635 186.131 87.386 C 188.242 86.799 190.518 86.336 192.958 85.997 C 193.894 85.871 195.545 85.75 196.124 86.807 C 196.965 88.348 194.372 89.747 193.245 90.341 C 190.244 91.929 187.481 93.234 184.953 94.258 C 175.344 98.151 165.146 101.786 154.346 105.162 C 151.376 106.092 147.356 107.737 142.276 110.096 C 139.086 111.579 134.756 113.883 129.286 117.008 C 118.536 123.147 108.876 128.843 100.306 134.099 C 95.266 137.187 90.846 140.182 87.056 143.085 C 84.646 144.933 82.416 147.304 80.046 149.318 C 79.266 149.979 78.506 150.439 77.766 150.697 C 77.396 150.823 76.996 150.637 76.856 150.274 C 76.186 148.557 77.716 146.79 78.996 145.633 C 81.106 143.733 83.516 141.824 86.226 139.904 C 99.436 130.537 113.506 122.155 128.436 114.757 C 129.396 114.281 130.246 113.663 130.976 112.905 C 131.546 112.321 131.426 112.056 130.606 112.109 C 130.306 112.13 129.816 112.245 129.146 112.457 C 123.666 114.186 114.296 117.218 101.016 121.554 C 89.966 125.163 76.886 129.06 69.216 131.577 C 58.186 135.202 47.446 139.484 37.006 144.424 C 34.196 145.753 26.286 148.935 23.776 146.423 C 23.136 145.789 23.526 144.943 24.066 144.439 C 25.226 143.345 26.536 142.357 28.026 141.474 C 31.506 139.394 35.046 137.4 38.646 135.494 C 45.016 132.104 57.766 125.548 76.886 115.825 C 81.836 113.308 86.746 110.728 91.636 108.087 C 105.996 100.324 120.626 93.065 134.996 85.337 C 141.906 81.622 148.876 77.944 155.906 74.302 C 167.701 68.201 180.11 61.223 188.85 56.758 C 190.35 55.992 191.84 55.051 193.32 53.933 C 193.438 53.845 193.416 53.663 193.281 53.605 C 193.266 53.598 193.25 53.594 193.235 53.591 C 192.948 53.541 192.485 53.485 192.172 53.566 C 189.246 54.341 186.833 55.061 184.933 55.726 C 171.911 60.284 155.486 66.1 135.656 73.174 C 130.196 75.121 123.466 77.625 115.486 80.686 C 111.016 82.397 107.286 83.263 103.196 85.06 C 98.796 86.993 94.646 87.588 90.256 89.294 C 87.046 90.546 85.436 91.174 85.416 91.177 C 81.946 92.325 71.316 95.577 68.436 93.342 C 67.846 92.882 67.826 91.996 68.396 91.509 C 68.746 91.207 69.246 91.031 69.876 90.981 C 73.276 90.706 76.676 90.068 80.076 89.068 C 97.596 83.902 108.886 79.603 131.596 71.282 C 143.606 66.882 156.966 62.346 165.531 59.24 C 171.364 57.125 178.924 54.612 188.211 51.698 C 195.334 49.463 202.201 46.941 209.611 43.915 C 214.298 42.002 218.779 38.78 223.475 36.142 C 227.755 33.736 231.112 32.286 235.522 31.969 C 236.479 31.899 237.853 32.019 238.397 33.021 C 239.439 34.944 237.189 36.278 235.643 37.104 C 233.962 38.004 231.728 38.99 228.943 40.064 C 218.817 43.968 213.482 46.027 212.939 46.241 C 209.247 47.695 205.471 49.411 201.612 51.391 C 199.427 52.512 197.891 53.596 197.005 54.643 C 196.428 55.328 195.79 55.805 195.092 56.073 C 194.817 56.181 193.978 56.61 192.575 57.362 C 190.763 58.338 187.769 60.052 183.594 62.502 C 170.933 69.932 157.876 76.749 144.826 83.469 C 139.886 86.017 134.766 89.158 129.566 91.841 C 116.526 98.574 103.796 105.197 91.386 111.712 C 88.356 113.299 85.376 114.836 82.436 116.323 C 57.006 129.181 45.066 135.106 32.176 141.968 C 31.156 142.511 30.276 143.146 29.536 143.871 Z M 225.897 37.582 C 226.162 38.321 226.982 38.421 228.359 37.884 C 229.483 37.445 230.579 36.693 231.646 35.629 C 231.669 35.609 231.678 35.584 231.671 35.553 C 231.668 35.543 231.663 35.528 231.656 35.508 C 231.649 35.488 231.643 35.473 231.636 35.463 C 231.622 35.436 231.601 35.423 231.571 35.423 C 230.07 35.282 228.746 35.401 227.599 35.78 C 226.196 36.24 225.628 36.841 225.897 37.582 Z" style="stroke-miterlimit: 1; paint-order: fill; stroke-linejoin: round; stroke-width: 4px; stroke-dashoffset: -11px; fill: rgb(255, 255, 255);" id="object-5"/><path d="M 199.321 142.612 C 199.222 142.837 199.378 143.091 199.623 143.105 C 200.455 143.156 201.35 143.027 202.306 142.718 C 205.569 141.657 208.906 140.422 212.32 139.012 C 232.688 130.6 247.695 124.307 265.985 118.04 C 270.452 116.506 274.404 115.389 277.84 114.687 C 278.535 114.543 278.971 114.483 279.149 114.506 C 280.284 114.654 280.346 115.003 279.336 115.553 C 277.449 116.577 275.556 117.441 273.657 118.145 C 261.545 122.636 254.419 125.291 252.282 126.11 C 241.602 130.191 229.513 135.176 216.015 141.066 C 212.083 142.783 200.227 147.807 196.361 145.31 C 190.139 141.298 221.724 121.549 224.236 119.968 C 239.912 110.124 252.755 102.246 262.763 96.332 C 289.268 80.66 317.329 64.536 342.188 51.517 C 345.004 50.044 348.186 48.527 351.733 46.966 C 352.233 46.748 352.722 46.597 353.198 46.513 C 353.366 46.486 353.513 46.527 353.641 46.634 C 354.376 47.265 354.702 48.042 354.618 48.965 C 354.601 49.127 354.524 49.277 354.401 49.388 C 353.807 49.918 353.158 50.24 352.453 50.354 C 350.057 50.737 348.199 51.489 346.88 52.609 C 346.014 53.344 345.249 53.836 344.585 54.085 C 342.886 54.719 340.175 56.063 336.449 58.117 C 331.143 61.037 320.898 66.638 305.715 74.921 C 301.819 77.046 295.959 80.63 293.135 82.251 C 270.175 95.448 250.078 107.446 232.844 118.246 C 224.568 123.431 216.563 128.808 208.831 134.376 C 204.689 137.356 201.821 139.692 200.227 141.384 C 199.761 141.88 199.459 142.29 199.321 142.612 Z" style="stroke-miterlimit: 1; paint-order: fill; stroke-linejoin: round; stroke-width: 4px; stroke-dashoffset: -11px; fill: rgb(255, 255, 255);" id="object-3"/><path d="M 396.095 105.902 C 396.149 105.63 396.038 105.489 395.763 105.479 C 389.898 105.212 379.689 106.763 371.865 105.625 C 370.3 105.399 367.269 104.155 369.328 102.046 C 370.16 101.194 371.325 100.354 372.822 99.529 C 378.165 96.576 384.192 94.174 390.905 92.325 C 404.558 88.566 411.44 86.671 411.55 86.641 C 414.856 85.725 417.881 85.064 420.627 84.658 C 421.523 84.527 422.354 84.586 423.119 84.834 C 423.565 84.978 423.688 85.551 423.341 85.865 C 423.341 85.865 423.341 85.866 423.341 85.866 C 422.294 86.806 421.1 87.455 419.761 87.814 C 407.609 91.076 398.005 93.679 390.95 95.622 C 384.681 97.351 379.71 98.968 376.039 100.475 C 375.256 100.797 374.56 101.192 373.95 101.658 C 373.785 101.782 373.816 102.036 374.004 102.117 C 374.013 102.121 374.021 102.124 374.03 102.126 C 374.808 102.365 375.626 102.501 376.482 102.534 C 384.681 102.84 393.019 102.717 401.497 102.167 C 404.603 101.965 408.323 101.25 411.651 100.364 C 417.074 98.912 422.844 97.289 428.959 95.496 C 435.373 93.614 440.192 92.011 443.417 90.689 C 444.286 90.333 446.78 89.229 450.898 87.376 C 451.402 87.148 452.137 86.911 453.103 86.666 C 453.667 86.521 454.211 86.962 454.191 87.547 C 454.12 89.239 452.907 90.442 451.276 91.066 C 449.005 91.932 446.901 93.095 444.641 93.865 C 434.575 97.302 423.369 100.548 411.022 103.601 C 408.716 104.175 403.274 105.706 402.448 107.166 C 402.236 107.537 402.494 108.001 402.922 108.017 C 409.358 108.268 418.071 108.439 429.06 108.53 C 433.291 108.567 436.848 108.764 439.727 109.119 C 440.992 109.274 441.994 109.564 442.733 109.99 C 443.153 110.233 443.325 110.755 443.13 111.203 C 442.932 111.66 442.642 112.078 442.259 112.457 C 436.863 117.813 429.523 120.647 422.178 123.195 C 411.038 127.061 397.588 131.443 381.828 136.339 C 374.886 138.499 368.845 140.392 362.23 141.167 C 360.689 141.348 358.57 141.444 357.986 139.999 C 357.816 139.58 357.996 139.102 358.399 138.897 C 359.318 138.427 360.333 138.116 361.444 137.965 C 364.881 137.502 368.316 136.791 371.75 135.831 C 389.163 130.963 405.993 125.148 423.477 119.097 C 427.205 117.805 430.825 116.391 434.335 114.853 C 435.406 114.383 436.334 113.804 437.119 113.116 C 437.454 112.828 437.35 112.286 436.933 112.14 C 436.933 112.14 436.933 112.14 436.933 112.14 C 435.5 111.64 434.06 111.364 432.614 111.314 C 425.999 111.096 419.84 111.004 414.138 111.037 C 407.006 111.084 402.264 111.227 399.911 111.465 C 397.646 111.697 396.271 112.069 394.167 113.005 C 391.814 114.056 389.201 115.072 386.329 116.051 C 372.731 120.688 363.342 123.326 345.239 128.818 C 342.319 129.704 337.069 131.693 333.726 132.428 C 332.719 132.646 331.816 132.676 331.017 132.518 C 330.383 132.39 330.07 131.67 330.413 131.124 C 330.574 130.862 330.858 130.637 331.264 130.449 C 335.79 128.375 340.895 126.814 347.343 124.891 C 363.798 119.998 372.052 117.543 372.102 117.526 C 377.675 115.81 384.214 113.363 388.68 112.014 C 390.378 111.497 391.581 111.019 392.289 110.579 C 393.628 109.748 395.758 107.674 396.095 105.902 Z" style="stroke-miterlimit: 1; paint-order: fill; stroke-linejoin: round; stroke-width: 4px; stroke-dashoffset: -11px; fill: rgb(255, 255, 255);" id="object-0"/><path d="M 316.544 114.526 C 316.307 114.955 316.585 115.487 317.072 115.538 C 318.361 115.679 319.698 115.543 321.085 115.13 C 323.538 114.398 325.959 113.588 328.349 112.698 C 343.21 107.158 357.675 101.117 371.745 94.575 C 372.047 94.438 372.254 94.523 372.369 94.832 C 372.706 95.728 372.399 96.428 371.669 96.946 C 369.652 98.383 367.475 99.658 365.14 100.772 C 354.92 105.655 342.89 110.662 329.049 115.789 C 325.319 117.174 316.332 120.693 313.181 116.902 C 312.238 115.768 312.379 114.44 313.604 112.92 C 314.658 111.615 316.468 110.111 319.036 108.409 C 322.217 106.298 325.877 104.216 330.016 102.162 C 338.224 98.081 346.675 94.74 355.368 92.138 C 358.066 91.333 361.741 90.361 364.913 90.981 C 365.657 91.127 366.239 91.705 366.388 92.446 L 366.539 93.206 C 366.683 93.911 366.396 94.235 365.678 94.177 C 365.195 94.141 364.679 94.06 364.133 93.936 C 363.713 93.839 363.193 93.825 362.572 93.895 C 360.226 94.167 358.243 94.543 356.622 95.023 C 345.18 98.406 334.262 103.011 323.869 108.837 C 321.719 110.045 317.757 112.306 316.544 114.526 Z" style="stroke-miterlimit: 1; paint-order: fill; stroke-linejoin: round; stroke-width: 4px; stroke-dashoffset: -11px; fill: rgb(255, 255, 255);" id="object-2"/><path d="M 177.966 124.323 C 178.499 124.195 179.231 123.917 180.161 123.487 C 197.918 115.311 215.503 106.751 232.915 97.807 C 235.871 96.29 238.749 94.968 241.548 93.84 C 241.618 93.813 241.689 93.797 241.76 93.79 C 242.498 93.709 242.77 93.971 242.575 94.575 C 242.002 96.337 238.357 98.351 236.66 99.287 C 232.065 101.821 226.766 104.536 220.762 107.433 C 210.556 112.36 195.324 119.532 175.066 128.949 C 172.354 130.211 169.644 131.315 166.936 132.262 C 165.61 132.722 164.626 132.332 163.986 131.094 C 163.896 130.94 163.906 130.792 164.016 130.651 C 164.566 129.885 165.296 129.17 166.201 128.506 C 182.421 116.548 198.506 105.785 214.454 96.216 C 218.196 93.974 221.817 92.481 225.318 91.736 C 226.833 91.414 230.418 91.081 230.257 93.462 C 230.216 94.045 229.747 94.503 229.169 94.525 C 227.76 94.585 226.496 94.474 225.011 94.907 C 219.337 96.554 213.649 100.067 208.75 103.229 C 193.422 113.126 184.735 118.785 182.688 120.204 C 180.513 121.712 178.86 122.925 177.729 123.844 C 177.101 124.355 177.18 124.514 177.966 124.323 Z" style="stroke-miterlimit: 1; paint-order: fill; stroke-linejoin: round; stroke-width: 4px; stroke-dashoffset: -11px; fill: rgb(255, 255, 255);" id="object-4"/><path d="M 302.342 107.795 C 302.541 108.024 302.851 108.123 303.148 108.052 C 305.007 107.606 306.729 107 308.313 106.234 C 311.87 104.523 315.176 103.133 318.23 102.066 C 319.912 101.482 321.289 101.177 322.363 101.15 C 323.327 101.127 323.457 101.445 322.756 102.106 C 322.279 102.556 321.639 102.992 320.833 103.415 C 315.997 105.936 309.536 109.081 301.451 112.849 C 291.591 117.441 282.576 121.518 274.407 125.083 C 270.386 126.838 267.161 128.137 264.731 128.979 C 264.14 129.184 263.625 129.144 263.186 128.858 C 262.768 128.589 262.733 127.992 263.115 127.675 C 263.806 127.098 264.605 126.54 265.512 125.999 C 276.063 119.711 290.305 112.88 297.338 109.119 C 299.13 108.16 300.379 107.599 301.084 107.438 C 301.673 107.297 301.96 107.352 302.342 107.795 Z" style="stroke-miterlimit: 1; paint-order: fill; stroke-linejoin: round; stroke-width: 4px; stroke-dashoffset: -11px; fill: rgb(255, 255, 255);" id="object-1"/></svg>