<?xml version="1.0" encoding="utf-8"?>
<svg xmlns="http://www.w3.org/2000/svg" viewBox="50.994 50.093 396.8 396.796" width="396.8px" height="396.796px"><path d="M 447.794 248.489 C 447.794 358.062 358.967 446.889 249.394 446.889 C 139.82 446.889 50.994 358.062 50.994 248.489 C 50.994 138.915 139.82 50.093 249.394 50.093 C 358.967 50.093 447.794 138.915 447.794 248.489 Z M 250.714 283.439 C 249.42 282.505 248.714 281.942 248.594 281.749 C 245.274 276.322 242.657 270.115 240.744 263.129 C 236.204 246.559 233.114 235.029 230.774 220.749 C 228.334 205.919 225.804 190.049 219.724 176.039 C 215.864 167.129 207.864 160.249 197.914 161.829 C 193.054 162.595 188.304 164.192 183.664 166.619 C 177.177 170.019 171.18 173.862 165.674 178.149 C 152.507 188.402 140.354 200.022 129.214 213.009 C 128.974 213.289 128.967 213.572 129.194 213.859 L 137.714 224.979 C 137.947 225.285 138.21 225.319 138.504 225.079 C 144.284 220.439 152.574 215.439 159.494 216.299 C 162.884 216.729 164.564 220.049 165.584 222.709 C 168.95 231.475 172.337 241.402 175.744 252.489 C 183.817 278.735 189.747 297.872 193.534 309.899 C 195.624 316.519 198.464 325.139 201.074 330.719 C 209.254 348.239 228.754 363.859 248.554 351.369 C 251.387 349.582 253.68 348.015 255.434 346.669 C 271.787 334.082 287.07 319.625 301.284 303.299 C 305.714 298.219 310.304 292.139 314.624 286.579 C 317.884 282.385 320.96 278.022 323.854 273.489 C 328.527 266.169 331.614 261.212 333.114 258.619 C 341.954 243.359 348.2 226.869 351.854 209.149 C 353.52 201.082 353.727 193.439 352.474 186.219 C 348.454 163.089 325.364 156.359 305.234 161.979 C 288.854 166.552 275.997 175.825 266.664 189.799 C 264.864 192.489 263.924 194.579 262.154 198.409 C 260.054 202.939 259.034 207.859 257.774 212.009 C 257.702 212.22 257.885 212.43 258.104 212.387 C 258.132 212.381 258.159 212.372 258.184 212.359 C 263.774 209.559 270.064 206.809 275.864 207.969 C 292.554 211.289 290.174 230.819 284.644 241.899 C 278.884 253.419 272.44 263.965 265.314 273.539 C 263.824 275.549 254.894 286.429 250.714 283.439 Z" style="fill: rgb(255, 255, 255);" id="object-0" transform="matrix(0.9999999999999999, 0, 0, 0.9999999999999999, -7.105427357601002e-15, -1.4210854715202004e-14)"/></svg>